<svg width="108" height="28" viewBox="0 0 108 28" fill="none" xmlns="http://www.w3.org/2000/svg">
<path d="M0 7.98074V27.1068H2.74564V13.2572H2.92307L8.56377 27.0788H10.8425L16.4832 13.2666H16.6606V27.1068H19.4062V7.98074H15.9041L9.81518 22.8483H9.59104L3.50209 7.98074H0Z" fill="white"/>
<path d="M30.0479 27.3963C33.1764 27.3963 35.3897 25.8554 36.0248 23.5207L33.3819 23.0444C32.8776 24.3985 31.6635 25.0896 30.0759 25.0896C27.6852 25.0896 26.0789 23.5393 26.0042 20.775H36.2022V19.7851C36.2022 14.602 33.1017 12.5755 29.8518 12.5755C25.8547 12.5755 23.2212 15.62 23.2212 20.0279C23.2212 24.4826 25.8174 27.3963 30.0479 27.3963ZM26.0135 18.6831C26.1256 16.6472 27.6011 14.8822 29.8705 14.8822C32.0371 14.8822 33.4566 16.4885 33.4659 18.6831H26.0135Z" fill="white"/>
<path d="M50.0495 16.2643C49.4705 14.0323 47.7241 12.5755 44.6236 12.5755C41.383 12.5755 39.0856 14.2845 39.0856 16.8247C39.0856 18.8606 40.3183 20.2147 43.0079 20.8124L45.4361 21.3447C46.8182 21.6529 47.4626 22.2693 47.4626 23.1658C47.4626 24.2771 46.2766 25.1456 44.4461 25.1456C42.7745 25.1456 41.7005 24.4265 41.3643 23.0164L38.6654 23.4273C39.1323 25.9675 41.2429 27.3963 44.4648 27.3963C47.9295 27.3963 50.3296 25.5565 50.3296 22.9603C50.3296 20.9338 49.0409 19.6824 46.4073 19.0753L44.1286 18.5524C42.5503 18.1788 41.8686 17.6465 41.8779 16.6753C41.8686 15.5733 43.064 14.7888 44.6516 14.7888C46.3886 14.7888 47.1918 15.7507 47.5186 16.7126L50.0495 16.2643Z" fill="white"/>
<path d="M60.0958 12.7623H57.154V9.32554H54.3617V12.7623H52.2605V15.0036H54.3617V23.474C54.3524 26.0795 56.3416 27.3403 58.5455 27.2936C59.4327 27.2842 60.0304 27.1161 60.3573 26.9947L59.853 24.688C59.6662 24.7254 59.3207 24.8094 58.8724 24.8094C57.9665 24.8094 57.154 24.5106 57.154 22.895V15.0036H60.0958V12.7623Z" fill="white"/>
<path d="M69.0728 27.3963C73.1165 27.3963 75.7594 24.4359 75.7594 19.9999C75.7594 15.5359 73.1165 12.5755 69.0728 12.5755C65.0291 12.5755 62.3862 15.5359 62.3862 19.9999C62.3862 24.4359 65.0291 27.3963 69.0728 27.3963ZM69.0821 25.0522C66.4392 25.0522 65.2065 22.7455 65.2065 19.9906C65.2065 17.2449 66.4392 14.9102 69.0821 14.9102C71.7064 14.9102 72.9391 17.2449 72.9391 19.9906C72.9391 22.7455 71.7064 25.0522 69.0821 25.0522Z" fill="white"/>
<path d="M80.8608 7.87939L82.689 2.60156H83.6118L81.2388 9H80.4917L78.123 2.60156H79.0415L80.8608 7.87939ZM85.229 9H84.416V4.24512H85.229V9ZM84.3501 2.98389C84.3501 2.85205 84.3896 2.74072 84.4688 2.6499C84.5508 2.55908 84.6709 2.51367 84.8291 2.51367C84.9873 2.51367 85.1074 2.55908 85.1895 2.6499C85.2715 2.74072 85.3125 2.85205 85.3125 2.98389C85.3125 3.11572 85.2715 3.22559 85.1895 3.31348C85.1074 3.40137 84.9873 3.44531 84.8291 3.44531C84.6709 3.44531 84.5508 3.40137 84.4688 3.31348C84.3896 3.22559 84.3501 3.11572 84.3501 2.98389ZM87.6372 3.09375V4.24512H88.5249V4.87354H87.6372V7.82227C87.6372 8.0127 87.6768 8.15625 87.7559 8.25293C87.835 8.34668 87.9697 8.39355 88.1602 8.39355C88.2539 8.39355 88.3828 8.37598 88.5469 8.34082V9C88.333 9.05859 88.125 9.08789 87.9229 9.08789C87.5596 9.08789 87.2856 8.97803 87.1011 8.7583C86.9165 8.53857 86.8242 8.22656 86.8242 7.82227V4.87354H85.9585V4.24512H86.8242V3.09375H87.6372ZM91.4517 9.08789C90.8071 9.08789 90.2827 8.87695 89.8784 8.45508C89.4741 8.03027 89.272 7.46338 89.272 6.75439V6.60498C89.272 6.1333 89.3613 5.71289 89.54 5.34375C89.7217 4.97168 89.9736 4.68164 90.2959 4.47363C90.6211 4.2627 90.9727 4.15723 91.3506 4.15723C91.9688 4.15723 92.4492 4.36084 92.792 4.76807C93.1348 5.17529 93.3062 5.7583 93.3062 6.51709V6.85547H90.085C90.0967 7.32422 90.2329 7.70361 90.4937 7.99365C90.7573 8.28076 91.0913 8.42432 91.4956 8.42432C91.7827 8.42432 92.0259 8.36572 92.2251 8.24854C92.4243 8.13135 92.5986 7.97607 92.748 7.78271L93.2446 8.16943C92.8462 8.78174 92.2485 9.08789 91.4517 9.08789ZM91.3506 4.8252C91.0225 4.8252 90.7471 4.94531 90.5244 5.18555C90.3018 5.42285 90.1641 5.75684 90.1113 6.1875H92.4932V6.12598C92.4697 5.71289 92.3584 5.39355 92.1592 5.16797C91.96 4.93945 91.6904 4.8252 91.3506 4.8252ZM98.2764 6.67529C98.2764 7.40186 98.1094 7.98633 97.7754 8.42871C97.4414 8.86816 96.9932 9.08789 96.4307 9.08789C95.8301 9.08789 95.3657 8.87549 95.0376 8.45068L94.998 9H94.251V2.25H95.064V4.76807C95.3921 4.36084 95.8447 4.15723 96.4219 4.15723C96.999 4.15723 97.4517 4.37549 97.7798 4.81201C98.1108 5.24854 98.2764 5.84619 98.2764 6.60498V6.67529ZM97.4634 6.58301C97.4634 6.0293 97.3564 5.60156 97.1426 5.2998C96.9287 4.99805 96.6211 4.84717 96.2197 4.84717C95.6836 4.84717 95.2983 5.09619 95.064 5.59424V7.65088C95.313 8.14893 95.7012 8.39795 96.2285 8.39795C96.6182 8.39795 96.9214 8.24707 97.1382 7.94531C97.355 7.64355 97.4634 7.18945 97.4634 6.58301ZM102.073 7.73877C102.073 7.51904 101.99 7.34912 101.823 7.229C101.659 7.10596 101.37 7.00049 100.957 6.9126C100.547 6.82471 100.22 6.71924 99.9771 6.59619C99.7368 6.47314 99.5581 6.32666 99.4409 6.15674C99.3267 5.98682 99.2695 5.78467 99.2695 5.55029C99.2695 5.16064 99.4336 4.83105 99.7617 4.56152C100.093 4.29199 100.515 4.15723 101.027 4.15723C101.566 4.15723 102.003 4.29639 102.337 4.57471C102.674 4.85303 102.842 5.20898 102.842 5.64258H102.025C102.025 5.41992 101.93 5.22803 101.739 5.06689C101.552 4.90576 101.314 4.8252 101.027 4.8252C100.731 4.8252 100.5 4.88965 100.333 5.01855C100.166 5.14746 100.083 5.31592 100.083 5.52393C100.083 5.72021 100.16 5.86816 100.315 5.96777C100.471 6.06738 100.75 6.1626 101.155 6.25342C101.562 6.34424 101.892 6.45264 102.144 6.57861C102.396 6.70459 102.582 6.85693 102.702 7.03564C102.825 7.21143 102.886 7.42676 102.886 7.68164C102.886 8.10645 102.716 8.44775 102.376 8.70557C102.037 8.96045 101.596 9.08789 101.054 9.08789C100.673 9.08789 100.336 9.02051 100.043 8.88574C99.75 8.75098 99.52 8.56348 99.353 8.32324C99.189 8.08008 99.1069 7.81787 99.1069 7.53662H99.9199C99.9346 7.80908 100.043 8.02588 100.245 8.18701C100.45 8.34521 100.72 8.42432 101.054 8.42432C101.361 8.42432 101.607 8.36279 101.792 8.23975C101.979 8.11377 102.073 7.94678 102.073 7.73877ZM105.272 6.79834L104.763 7.33008V9H103.95V2.25H104.763V6.33252L105.198 5.80957L106.679 4.24512H107.667L105.817 6.23145L107.883 9H106.929L105.272 6.79834Z" fill="white"/>
</svg>
