<svg width="142" height="33" viewBox="0 0 142 33" fill="none" xmlns="http://www.w3.org/2000/svg">
<path d="M0 6.73727V32.6084H3.75838V13.8746H4.00127L11.7226 32.5705H14.8418L22.5631 13.8872H22.806V32.6084H26.5643V6.73727H21.7705L13.4356 26.848H13.1288L4.79385 6.73727H0Z" fill="white"/>
<path d="M41.1313 33C45.4138 33 48.4435 30.9157 49.3128 27.7576L45.695 27.1133C45.0047 28.945 43.3428 29.8798 41.1696 29.8798C37.897 29.8798 35.6982 27.7828 35.596 24.0436H49.5557V22.7046C49.5557 15.6936 45.3115 12.9524 40.8628 12.9524C35.3914 12.9524 31.7864 17.0706 31.7864 23.033C31.7864 29.0587 35.3403 33 41.1313 33ZM35.6088 21.214C35.7622 18.4601 37.782 16.0726 40.8884 16.0726C43.8542 16.0726 45.7973 18.2454 45.8101 21.214H35.6088Z" fill="white"/>
<path d="M68.5106 17.9422C67.718 14.9231 65.3275 12.9524 61.0833 12.9524C56.6474 12.9524 53.5026 15.2641 53.5026 18.7001C53.5026 21.454 55.19 23.2857 58.8717 24.0942L62.1955 24.8142C64.0874 25.2311 64.9695 26.0648 64.9695 27.2775C64.9695 28.7808 63.346 29.9556 60.8404 29.9556C58.5521 29.9556 57.082 28.9829 56.6218 27.0754L52.9273 27.6312C53.5665 31.0672 56.4556 33 60.866 33C65.6087 33 68.8941 30.5114 68.8941 26.9996C68.8941 24.2584 67.1299 22.5656 63.525 21.7445L60.4058 21.0371C58.2453 20.5318 57.3121 19.8118 57.3249 18.498C57.3121 17.0074 58.9484 15.9463 61.1216 15.9463C63.4994 15.9463 64.5988 17.2474 65.0462 18.5486L68.5106 17.9422Z" fill="white"/>
<path d="M82.2625 13.2051H78.2357V8.55634H74.4134V13.2051H71.5371V16.2368H74.4134V27.6944C74.4006 31.2188 77.1235 32.9242 80.1405 32.861C81.3549 32.8484 82.1731 32.621 82.6205 32.4568L81.9302 29.3366C81.6745 29.3871 81.2015 29.5008 80.5879 29.5008C79.3479 29.5008 78.2357 29.0966 78.2357 26.9112V16.2368H82.2625V13.2051Z" fill="white"/>
<path d="M94.5508 33C100.086 33 103.704 28.9955 103.704 22.9951C103.704 16.9569 100.086 12.9524 94.5508 12.9524C89.0155 12.9524 85.3977 16.9569 85.3977 22.9951C85.3977 28.9955 89.0155 33 94.5508 33ZM94.5636 29.8293C90.9458 29.8293 89.2584 26.7091 89.2584 22.9825C89.2584 19.2686 90.9458 16.1105 94.5636 16.1105C98.1558 16.1105 99.8432 19.2686 99.8432 22.9825C99.8432 26.7091 98.1558 29.8293 94.5636 29.8293Z" fill="white"/>
<path d="M110.179 7.75488L112.21 1.89062H113.235L110.599 9H109.769L107.137 1.89062H108.157L110.179 7.75488ZM115.232 9H114.329V3.7168H115.232V9ZM114.256 2.31543C114.256 2.16895 114.3 2.04525 114.387 1.94434C114.479 1.84342 114.612 1.79297 114.788 1.79297C114.964 1.79297 115.097 1.84342 115.188 1.94434C115.279 2.04525 115.325 2.16895 115.325 2.31543C115.325 2.46191 115.279 2.58398 115.188 2.68164C115.097 2.7793 114.964 2.82812 114.788 2.82812C114.612 2.82812 114.479 2.7793 114.387 2.68164C114.3 2.58398 114.256 2.46191 114.256 2.31543ZM118.108 2.4375V3.7168H119.094V4.41504H118.108V7.69141C118.108 7.90299 118.152 8.0625 118.24 8.16992C118.328 8.27409 118.477 8.32617 118.689 8.32617C118.793 8.32617 118.936 8.30664 119.119 8.26758V9C118.881 9.0651 118.65 9.09766 118.425 9.09766C118.022 9.09766 117.717 8.97559 117.512 8.73145C117.307 8.4873 117.205 8.14062 117.205 7.69141V4.41504H116.243V3.7168H117.205V2.4375H118.108ZM122.546 9.09766C121.83 9.09766 121.247 8.86328 120.798 8.39453C120.349 7.92253 120.124 7.29264 120.124 6.50488V6.33887C120.124 5.81478 120.224 5.34766 120.422 4.9375C120.624 4.52409 120.904 4.20182 121.262 3.9707C121.623 3.73633 122.014 3.61914 122.434 3.61914C123.121 3.61914 123.655 3.84538 124.036 4.29785C124.416 4.75033 124.607 5.39811 124.607 6.24121V6.61719H121.028C121.041 7.13802 121.192 7.55957 121.482 7.88184C121.775 8.20085 122.146 8.36035 122.595 8.36035C122.914 8.36035 123.184 8.29525 123.406 8.16504C123.627 8.03483 123.821 7.8623 123.987 7.64746L124.538 8.07715C124.096 8.75749 123.432 9.09766 122.546 9.09766ZM122.434 4.36133C122.069 4.36133 121.763 4.49479 121.516 4.76172C121.269 5.02539 121.116 5.39648 121.057 5.875H123.704V5.80664C123.677 5.34766 123.554 4.99284 123.332 4.74219C123.111 4.48828 122.812 4.36133 122.434 4.36133ZM130.329 6.41699C130.329 7.22428 130.144 7.8737 129.773 8.36523C129.402 8.85352 128.904 9.09766 128.279 9.09766C127.611 9.09766 127.095 8.86165 126.731 8.38965L126.687 9H125.857V1.5H126.76V4.29785C127.125 3.84538 127.627 3.61914 128.269 3.61914C128.91 3.61914 129.413 3.86165 129.778 4.34668C130.145 4.83171 130.329 5.49577 130.329 6.33887V6.41699ZM129.426 6.31445C129.426 5.69922 129.307 5.22396 129.07 4.88867C128.832 4.55339 128.49 4.38574 128.044 4.38574C127.448 4.38574 127.02 4.66243 126.76 5.21582V7.50098C127.037 8.05436 127.468 8.33105 128.054 8.33105C128.487 8.33105 128.824 8.16341 129.065 7.82812C129.306 7.49284 129.426 6.98828 129.426 6.31445ZM134.748 7.59863C134.748 7.35449 134.655 7.16569 134.47 7.03223C134.287 6.89551 133.967 6.77832 133.508 6.68066C133.052 6.58301 132.689 6.46582 132.419 6.3291C132.152 6.19238 131.953 6.02962 131.823 5.84082C131.696 5.65202 131.633 5.42741 131.633 5.16699C131.633 4.73405 131.815 4.36784 132.18 4.06836C132.548 3.76888 133.016 3.61914 133.586 3.61914C134.185 3.61914 134.67 3.77376 135.041 4.08301C135.415 4.39225 135.603 4.78776 135.603 5.26953H134.694C134.694 5.02214 134.589 4.80892 134.377 4.62988C134.169 4.45085 133.905 4.36133 133.586 4.36133C133.257 4.36133 133 4.43294 132.814 4.57617C132.629 4.7194 132.536 4.90658 132.536 5.1377C132.536 5.35579 132.622 5.52018 132.795 5.63086C132.967 5.74154 133.278 5.84733 133.728 5.94824C134.18 6.04915 134.546 6.1696 134.826 6.30957C135.106 6.44954 135.313 6.61882 135.446 6.81738C135.583 7.0127 135.651 7.25195 135.651 7.53516C135.651 8.00716 135.463 8.38639 135.085 8.67285C134.707 8.95605 134.217 9.09766 133.615 9.09766C133.192 9.09766 132.818 9.02279 132.492 8.87305C132.167 8.72331 131.911 8.51497 131.726 8.24805C131.543 7.97786 131.452 7.68652 131.452 7.37402H132.355C132.372 7.67676 132.492 7.91764 132.717 8.09668C132.945 8.27246 133.244 8.36035 133.615 8.36035C133.957 8.36035 134.23 8.29199 134.436 8.15527C134.644 8.0153 134.748 7.82975 134.748 7.59863ZM138.503 6.55371L137.936 7.14453V9H137.033V1.5H137.936V6.03613L138.42 5.45508L140.065 3.7168H141.164L139.108 5.92383L141.403 9H140.344L138.503 6.55371Z" fill="white"/>
</svg>
